<svg width="250" height="109" viewBox="0 0 250 109" fill="none" xmlns="http://www.w3.org/2000/svg">
<path d="M31.3223 82.81V63.0005C26.011 63.0005 21.3909 62.2789 17.4619 60.8356C13.533 59.3201 10.2589 57.2273 7.63961 54.5572C5.09308 51.8149 3.16495 48.5674 1.85531 44.8148C0.618423 40.9901 0 36.7684 0 32.1498V5.52066H15.4974V33.0157C15.4974 37.2014 16.1159 40.521 17.3528 42.9746C18.6624 45.4283 20.5178 47.1963 22.9188 48.2788C25.3198 49.2891 28.121 49.7943 31.3223 49.7943V5.52066H46.1649V49.7943C49.0025 49.7943 51.6218 49.2891 54.0228 48.2788C56.4238 47.2684 58.3519 45.5726 59.8071 43.1911C61.2622 40.7375 61.9898 37.4178 61.9898 33.2322V5.52066H77.4873V31.9333C77.4873 38.2838 76.2867 43.8045 73.8857 48.4953C71.5575 53.1139 68.0651 56.6861 63.4086 59.2119C58.752 61.7377 53.0042 63.0005 46.1649 63.0005V82.81H31.3223ZM106.177 108.79V25.6549C106.177 19.8095 107.233 15.0104 109.343 11.2578C111.525 7.43304 114.581 4.61859 118.51 2.81445C122.512 0.938149 127.205 0 132.589 0C137.827 0 142.302 0.793835 146.013 2.38148C149.723 3.89696 152.561 6.20625 154.525 9.30937C156.562 12.3403 157.581 16.1651 157.581 20.7837C157.581 24.2476 156.963 27.2425 155.726 29.7683C154.562 32.2941 152.888 34.3147 150.705 35.8302C148.595 37.3457 146.049 38.3921 143.066 38.9694V39.2942C146.849 39.7993 150.123 40.8457 152.888 42.4334C155.726 44.021 157.908 46.2581 159.436 49.1448C161.037 51.9592 161.837 55.5675 161.837 59.9696C161.837 65.0212 160.673 69.3512 158.345 72.9594C156.09 76.4956 153.034 79.2018 149.177 81.0781C145.394 82.9544 141.174 83.8925 136.518 83.8925C134.189 83.8925 132.261 83.7482 130.733 83.4595C129.205 83.243 127.787 82.8822 126.477 82.3771C125.24 81.8719 123.894 81.2585 122.439 80.5368V108.79H106.177ZM133.462 71.0109C137.1 71.0109 139.937 69.9285 141.974 67.7635C144.012 65.5264 145.03 62.4593 145.03 58.5624C145.03 55.6036 144.412 53.2221 143.175 51.418C142.011 49.5417 140.519 48.2066 138.7 47.4128C136.881 46.5468 134.99 46.1138 133.025 46.1138H128.114V33.99H132.043C134.007 33.99 135.681 33.5209 137.063 32.5828C138.446 31.5725 139.501 30.2374 140.228 28.5776C140.956 26.8456 141.32 24.8971 141.32 22.7322C141.32 19.3404 140.447 16.8146 138.7 15.1548C136.954 13.4228 134.881 12.5568 132.48 12.5568C130.442 12.5568 128.66 12.9898 127.132 13.8558C125.604 14.7218 124.44 16.129 123.639 18.0775C122.839 19.9538 122.439 22.5157 122.439 25.7631V67.3305C124.258 68.4852 126.04 69.3872 127.787 70.0367C129.533 70.6862 131.425 71.0109 133.462 71.0109ZM221.079 5.52066C231.119 5.52066 238.431 7.68564 243.015 12.0156C247.672 16.2734 250 22.1548 250 29.6601C250 33.0519 249.491 36.2993 248.472 39.4024C247.453 42.4334 245.744 45.1757 243.343 47.6293C241.014 50.0108 237.922 51.8871 234.066 53.2582C230.21 54.6293 225.444 55.3149 219.769 55.3149H212.675V82.81H196.196V5.52066H221.079ZM220.206 18.9435H212.675V41.8921H218.132C221.261 41.8921 223.953 41.4952 226.208 40.7014C228.464 39.9076 230.21 38.6447 231.447 36.9127C232.684 35.1807 233.302 32.9436 233.302 30.2013C233.302 26.3765 232.247 23.5621 230.137 21.7579C228.027 19.8816 224.717 18.9435 220.206 18.9435Z" fill="#FFBD3F"/>
</svg>
